<svg xmlns="http://www.w3.org/2000/svg" xmlns:xlink="http://www.w3.org/1999/xlink" version="1.1" x="0px" y="0px" viewBox="0 0 32 32" enable-background="new 0 0 32 32" xml:space="preserve">
  <g display="none">
    <g display="inline">
      <g>
        <circle fill="#000000" cx="4.469" cy="4.164" r="4.164" />
        <circle cx="16" cy="4.164" r="4.164" />
        <circle fill="#000000" cx="27.531" cy="4.164" r="4.164" />
      </g>
      <g>
        <circle cx="4.469" cy="16" r="4.164" />
        <circle fill="#000000" cx="16" cy="16" r="4.164" />
        <circle cx="27.531" cy="16" r="4.164" />
      </g>
      <g>
        <circle fill="#000000" cx="4.469" cy="27.836" r="4.164" />
        <circle cx="16" cy="27.836" r="4.164" />
        <circle fill="#000000" cx="27.531" cy="27.836" r="4.164" />
      </g>
    </g>
  </g>
  <g display="none">
    <g display="inline">
      <path fill="#000000" d="M4.469,1c1.744,0,3.164,1.419,3.164,3.164S6.214,7.327,4.469,7.327S1.306,5.908,1.306,4.164    S2.725,1,4.469,1 M4.469,0c-2.3,0-4.164,1.864-4.164,4.164c0,2.3,1.864,4.164,4.164,4.164c2.3,0,4.164-1.864,4.164-4.164    C8.633,1.864,6.769,0,4.469,0L4.469,0z" />
    </g>
    <g display="inline">
      <path fill="#000000" d="M16,1c1.744,0,3.164,1.419,3.164,3.164S17.744,7.327,16,7.327s-3.164-1.419-3.164-3.164S14.256,1,16,1     M16,0c-2.3,0-4.164,1.864-4.164,4.164c0,2.3,1.864,4.164,4.164,4.164s4.164-1.864,4.164-4.164C20.164,1.864,18.3,0,16,0L16,0z" />
    </g>
    <g display="inline">
      <path fill="#000000" d="M27.531,1c1.744,0,3.164,1.419,3.164,3.164s-1.419,3.164-3.164,3.164s-3.164-1.419-3.164-3.164    S25.786,1,27.531,1 M27.531,0c-2.3,0-4.164,1.864-4.164,4.164c0,2.3,1.864,4.164,4.164,4.164c2.3,0,4.164-1.864,4.164-4.164    C31.694,1.864,29.83,0,27.531,0L27.531,0z" />
    </g>
    <g display="inline">
      <path fill="#000000" d="M4.469,12.836c1.744,0,3.164,1.419,3.164,3.164s-1.419,3.164-3.164,3.164S1.306,17.744,1.306,16    S2.725,12.836,4.469,12.836 M4.469,11.836c-2.3,0-4.164,1.864-4.164,4.164c0,2.3,1.864,4.164,4.164,4.164    c2.3,0,4.164-1.864,4.164-4.164C8.633,13.7,6.769,11.836,4.469,11.836L4.469,11.836z" />
    </g>
    <g display="inline">
      <path fill="#000000" d="M16,12.836c1.744,0,3.164,1.419,3.164,3.164S17.744,19.164,16,19.164S12.836,17.744,12.836,16    S14.256,12.836,16,12.836 M16,11.836c-2.3,0-4.164,1.864-4.164,4.164c0,2.3,1.864,4.164,4.164,4.164S20.164,18.3,20.164,16    C20.164,13.7,18.3,11.836,16,11.836L16,11.836z" />
    </g>
    <g display="inline">
      <path fill="#000000" d="M27.531,12.836c1.744,0,3.164,1.419,3.164,3.164s-1.419,3.164-3.164,3.164S24.367,17.744,24.367,16    S25.786,12.836,27.531,12.836 M27.531,11.836c-2.3,0-4.164,1.864-4.164,4.164c0,2.3,1.864,4.164,4.164,4.164    c2.3,0,4.164-1.864,4.164-4.164C31.694,13.7,29.83,11.836,27.531,11.836L27.531,11.836z" />
    </g>
    <g display="inline">
      <path fill="#000000" d="M4.469,24.673c1.744,0,3.164,1.419,3.164,3.164S6.214,31,4.469,31s-3.164-1.419-3.164-3.164    S2.725,24.673,4.469,24.673 M4.469,23.673c-2.3,0-4.164,1.864-4.164,4.164c0,2.3,1.864,4.164,4.164,4.164    c2.3,0,4.164-1.864,4.164-4.164C8.633,25.537,6.769,23.673,4.469,23.673L4.469,23.673z" />
    </g>
    <g display="inline">
      <path fill="#000000" d="M16,24.673c1.744,0,3.164,1.419,3.164,3.164S17.744,31,16,31s-3.164-1.419-3.164-3.164    S14.256,24.673,16,24.673 M16,23.673c-2.3,0-4.164,1.864-4.164,4.164C11.836,30.136,13.7,32,16,32s4.164-1.864,4.164-4.164    C20.164,25.537,18.3,23.673,16,23.673L16,23.673z" />
    </g>
    <g display="inline">
      <path fill="#000000" d="M27.531,24.673c1.744,0,3.164,1.419,3.164,3.164S29.275,31,27.531,31s-3.164-1.419-3.164-3.164    S25.786,24.673,27.531,24.673 M27.531,23.673c-2.3,0-4.164,1.864-4.164,4.164c0,2.3,1.864,4.164,4.164,4.164    c2.3,0,4.164-1.864,4.164-4.164C31.694,25.537,29.83,23.673,27.531,23.673L27.531,23.673z" />
    </g>
  </g>
  <g display="none">
    <g display="inline">
      <circle fill="#000000" cx="16" cy="16" r="16" />
    </g>
    <g display="inline">
      <g>
        <circle fill="#000000" cx="4.469" cy="4.164" r="3.664" />
      </g>
      <g>
        <g>
          <path d="M4.469,1c1.744,0,3.164,1.419,3.164,3.164S6.214,7.327,4.469,7.327S1.306,5.908,1.306,4.164S2.725,1,4.469,1 M4.469,0      c-2.3,0-4.164,1.864-4.164,4.164c0,2.3,1.864,4.164,4.164,4.164c2.3,0,4.164-1.864,4.164-4.164C8.633,1.864,6.769,0,4.469,0      L4.469,0z" />
        </g>
      </g>
    </g>
    <g display="inline">
      <g>
        <circle fill="#000000" cx="16" cy="4.164" r="3.664" />
      </g>
      <g>
        <path d="M16,1c1.744,0,3.164,1.419,3.164,3.164S17.744,7.327,16,7.327s-3.164-1.419-3.164-3.164S14.256,1,16,1 M16,0     c-2.3,0-4.164,1.864-4.164,4.164c0,2.3,1.864,4.164,4.164,4.164s4.164-1.864,4.164-4.164C20.164,1.864,18.3,0,16,0L16,0z" />
      </g>
    </g>
    <g display="inline">
      <g>
        <circle fill="#000000" cx="27.531" cy="4.164" r="3.664" />
      </g>
      <g>
        <g>
          <path d="M27.531,1c1.744,0,3.164,1.419,3.164,3.164s-1.419,3.164-3.164,3.164s-3.164-1.419-3.164-3.164S25.786,1,27.531,1       M27.531,0c-2.3,0-4.164,1.864-4.164,4.164c0,2.3,1.864,4.164,4.164,4.164c2.3,0,4.164-1.864,4.164-4.164      C31.694,1.864,29.83,0,27.531,0L27.531,0z" />
        </g>
      </g>
    </g>
    <g display="inline">
      <g>
        <circle fill="#000000" cx="4.469" cy="16" r="3.664" />
      </g>
      <g>
        <path d="M4.469,12.836c1.744,0,3.164,1.419,3.164,3.164s-1.419,3.164-3.164,3.164S1.306,17.744,1.306,16     S2.725,12.836,4.469,12.836 M4.469,11.836c-2.3,0-4.164,1.864-4.164,4.164c0,2.3,1.864,4.164,4.164,4.164     c2.3,0,4.164-1.864,4.164-4.164C8.633,13.7,6.769,11.836,4.469,11.836L4.469,11.836z" />
      </g>
    </g>
    <g display="inline">
      <g>
        <circle fill="#000000" cx="16" cy="16" r="3.664" />
      </g>
      <g>
        <g>
          <path d="M16,12.836c1.744,0,3.164,1.419,3.164,3.164S17.744,19.164,16,19.164S12.836,17.744,12.836,16S14.256,12.836,16,12.836       M16,11.836c-2.3,0-4.164,1.864-4.164,4.164c0,2.3,1.864,4.164,4.164,4.164S20.164,18.3,20.164,16      C20.164,13.7,18.3,11.836,16,11.836L16,11.836z" />
        </g>
      </g>
    </g>
    <g display="inline">
      <g>
        <circle fill="#000000" cx="27.531" cy="16" r="3.664" />
      </g>
      <g>
        <path d="M27.531,12.836c1.744,0,3.164,1.419,3.164,3.164s-1.419,3.164-3.164,3.164S24.367,17.744,24.367,16     S25.786,12.836,27.531,12.836 M27.531,11.836c-2.3,0-4.164,1.864-4.164,4.164c0,2.3,1.864,4.164,4.164,4.164     c2.3,0,4.164-1.864,4.164-4.164C31.694,13.7,29.83,11.836,27.531,11.836L27.531,11.836z" />
      </g>
    </g>
    <g display="inline">
      <g>
        <circle fill="#000000" cx="4.469" cy="27.836" r="3.664" />
      </g>
      <g>
        <g>
          <path d="M4.469,24.673c1.744,0,3.164,1.419,3.164,3.164S6.214,31,4.469,31s-3.164-1.419-3.164-3.164S2.725,24.673,4.469,24.673       M4.469,23.673c-2.3,0-4.164,1.864-4.164,4.164c0,2.3,1.864,4.164,4.164,4.164c2.3,0,4.164-1.864,4.164-4.164      C8.633,25.537,6.769,23.673,4.469,23.673L4.469,23.673z" />
        </g>
      </g>
    </g>
    <g display="inline">
      <g>
        <circle fill="#000000" cx="16" cy="27.836" r="3.664" />
      </g>
      <g>
        <path d="M16,24.673c1.744,0,3.164,1.419,3.164,3.164S17.744,31,16,31s-3.164-1.419-3.164-3.164S14.256,24.673,16,24.673      M16,23.673c-2.3,0-4.164,1.864-4.164,4.164C11.836,30.136,13.7,32,16,32s4.164-1.864,4.164-4.164     C20.164,25.537,18.3,23.673,16,23.673L16,23.673z" />
      </g>
    </g>
    <g display="inline">
      <g>
        <circle fill="#000000" cx="27.531" cy="27.836" r="3.664" />
      </g>
      <g>
        <g>
          <path d="M27.531,24.673c1.744,0,3.164,1.419,3.164,3.164S29.275,31,27.531,31s-3.164-1.419-3.164-3.164      S25.786,24.673,27.531,24.673 M27.531,23.673c-2.3,0-4.164,1.864-4.164,4.164c0,2.3,1.864,4.164,4.164,4.164      c2.3,0,4.164-1.864,4.164-4.164C31.694,25.537,29.83,23.673,27.531,23.673L27.531,23.673z" />
        </g>
      </g>
    </g>
  </g>
  <g>
    <g>
      <circle cx="4.469" cy="4.164" r="4.164" />
      <circle cx="16" cy="4.164" r="4.164" />
      <circle cx="27.531" cy="4.164" r="4.164" />
      <circle cx="4.469" cy="16" r="4.164" />
      <circle cx="16" cy="16" r="4.164" />
      <circle cx="27.531" cy="16" r="4.164" />
      <circle cx="4.469" cy="27.836" r="4.164" />
      <circle cx="16" cy="27.836" r="4.164" />
      <circle cx="27.531" cy="27.836" r="4.164" />
    </g>
  </g>
</svg>