<svg xmlns="http://www.w3.org/2000/svg" viewBox="0 0 700 550">
    <path d="m105 35h350v52.5h35v-70c0-4.6406-1.8438-9.0938-5.125-12.375s-7.7344-5.125-12.375-5.125h-385c-4.6406 0-9.0938 1.8438-12.375 5.125s-5.125 7.7344-5.125 12.375v385c0 4.6406 1.8438 9.0938 5.125 12.375s7.7344 5.125 12.375 5.125h70v-35h-52.5z" />
    <path d="m420 140c-55.695 0-109.11 22.125-148.49 61.508-39.383 39.383-61.508 92.797-61.508 148.49s22.125 109.11 61.508 148.49c39.383 39.383 92.797 61.508 148.49 61.508s109.11-22.125 148.49-61.508c39.383-39.383 61.508-92.797 61.508-148.49s-22.125-109.11-61.508-148.49c-39.383-39.383-92.797-61.508-148.49-61.508zm0 385c-46.414 0-90.926-18.438-123.74-51.258-32.82-32.816-51.258-77.328-51.258-123.74s18.438-90.926 51.258-123.74c32.816-32.82 77.328-51.258 123.74-51.258s90.926 18.438 123.74 51.258c32.82 32.816 51.258 77.328 51.258 123.74 0 30.719-8.0859 60.898-23.445 87.5-15.359 26.602-37.453 48.695-64.055 64.055-26.602 15.359-56.781 23.445-87.5 23.445z" />
</svg>