<svg
    aria-hidden="true"
   id="svg14"
   version="1.1"
   viewBox="0 0 25.3804963846 16"
   height="16"
   width="25.3804963846">
    <defs>
        <mask id="union-mask" x="0" y="0" width="25.3804963846" height="16">
                <rect x="5%" width="90%" height="100%" fill="white"/>
                <g
                    transform="translate(4.69,0)"
                >
                    <path
                        d="m 11.467471,11.811278 c 0.198237,-0.322177 0.508,-1.011333 0.653661,-1.454255 0.659343,-2.0049141 0.44323,-4.2620847 -0.577734,-6.0340822 l -0.168844,-0.2930481 0.105744,0.017887 c 0.759902,0.1285441 1.368762,0.3699553 1.856675,0.7361658 1.988296,1.4923476 2.192477,4.3353549 0.434717,6.0529895 -0.641216,0.626581 -1.299647,0.94683 -2.294136,1.115833 l -0.108488,0.01844 z M 4.3162122,11.919169 C 1.9278944,11.487872 0.46692382,9.0323123 1.234873,6.7401372 1.5621727,5.763213 2.2610593,4.9489746 3.1840041,4.4693005 3.5978035,4.2542401 3.9427842,4.145371 4.5197023,4.0477802 L 4.6254464,4.0298927 4.4571836,4.3223069 C 3.4332707,6.1017061 3.2180432,8.3476022 3.878868,10.357023 c 0.1458466,0.443487 0.4554716,1.132155 0.6542959,1.455285 0.054471,0.08853 0.087814,0.159599 0.074096,0.157937 -0.013718,-0.0017 -0.1446898,-0.02465 -0.2910477,-0.05108 z M 5.0000001,3 C 2.2,3 0,5.2 0,8 c 0,2.8 2.2,5 5.0000001,5 0.6,0 1.1,-0.1 1.6,-0.3 C 5.3000001,11.6 4.5,9.7999998 4.5,8 4.5,6.2 5.3000001,4.5 6.6000001,3.3 c -0.5,-0.2 -1,-0.3 -1.6,-0.3 z M 4.65,4.02 C 3.92,5.17 3.51,6.54 3.51,8 c 0,1.4599998 0.42,2.83 1.14,3.98 C 2.61,11.8 1.01,10.08 1.01,8 1.01,5.92 2.61,4.2 4.65,4.02 Z M 8,4 C 6.8,4.9 6,6.4 6,8 6,9.6 6.8,11.1 8,12 9.2,11.1 10,9.7 10,8 10,6.3 9.2,4.9 8,4 Z m 3,-1 c 2.8,0 5,2.2 5,5 0,2.8 -2.2,5 -5,5 C 10.4,13 9.9,12.9 9.4,12.7 10.7,11.6 11.5,9.8 11.5,8 11.5,6.2 10.7,4.5 9.4,3.3 9.9,3.1 10.4,3 11,3 Z m 0.35,1.02 c 0.73,1.15 1.14,2.52 1.14,3.98 0,1.46 -0.42,2.83 -1.14,3.98 2.04,-0.18 3.64,-1.9 3.64,-3.98 0,-2.08 -1.6,-3.8 -3.64,-3.98 z"
                        style="stroke-width:0.234;stroke-miterlimit:4;stroke-dasharray:none;stroke-opacity:1"
                        fill="black"
                    />
                </g>
        </mask>
    </defs>
  <g>
      <rect x="0" y="0" width="25.3804963846" height="16" mask="url(#union-mask)"/>
  </g>
</svg>
