<svg
   width="18"
   height="12"
   viewBox="0 0 16 10"
   version="1.1">
  <g
     transform="translate(0,-3)"
   >
      <path
         d="M 5.0000001,3 C 2.2,3 0,5.2 0,8 c 0,2.8 2.2,5 5.0000001,5 0.6,0 1.1,-0.1 1.6,-0.3 C 5.3000001,11.6 4.5,9.7999998 4.5,8 4.5,6.2 5.3000001,4.5 6.6000001,3.3 c -0.5,-0.2 -1,-0.3 -1.6,-0.3 z M 4.65,4.02 C 3.92,5.17 3.51,6.54 3.51,8 c 0,1.4599998 0.42,2.83 1.14,3.98 C 2.61,11.8 1.01,10.08 1.01,8 1.01,5.92 2.61,4.2 4.65,4.02 Z M 8,4 C 6.8,4.9 6,6.4 6,8 6,9.6 6.8,11.1 8,12 9.2,11.1 10,9.7 10,8 10,6.3 9.2,4.9 8,4 Z m 3,-1 c 2.8,0 5,2.2 5,5 0,2.8 -2.2,5 -5,5 C 10.4,13 9.9,12.9 9.4,12.7 10.7,11.6 11.5,9.8 11.5,8 11.5,6.2 10.7,4.5 9.4,3.3 9.9,3.1 10.4,3 11,3 Z m 0.35,1.02 c 0.73,1.15 1.14,2.52 1.14,3.98 0,1.46 -0.42,2.83 -1.14,3.98 2.04,-0.18 3.64,-1.9 3.64,-3.98 0,-2.08 -1.6,-3.8 -3.64,-3.98 z"
         style="stroke-width:0.234;stroke-miterlimit:4;stroke-dasharray:none;stroke-opacity:1"
      />
  </g>
</svg>
