<?xml version="1.0" encoding="UTF-8" standalone="no"?>
<svg
   viewBox="0 0 130 130"
   height="130mm"
   width="130mm">
  <defs
     id="defs2" />
  <g
     id="layer1">
    <path
       id="path978"
       d="m 109.32112,21.567618 c -1.5416,-0.47187 -3.4461,-1.659921 -4.34573,-2.710941 -4.23736,-4.950409 0.23338,-13.7610827 6.64683,-13.0991567 1.63302,0.168542 4.28105,1.323078 5.60806,2.445098 3.66088,3.0953597 2.47894,10.5043097 -2.05346,12.8720597 -1.18746,0.62034 -1.7254,0.73718 -3.30623,0.71814 -1.03841,-0.0125 -2.18567,-0.11385 -2.54947,-0.2252 z"
       style="fill:#999999;fill-opacity:1;stroke-width:0.264583" />
    <path
       id="path976"
       d="m 77.275126,21.076488 c -1.96004,-1.023941 -2.9418,-2.47118 -3.09284,-4.55923 -0.10085,-1.39431 -0.008,-1.81537 0.73247,-3.31937 1.39208,-2.82769 3.60131,-3.8918697 6.52638,-3.14372 4.34186,1.11052 6.00018,4.63516 4.03299,8.57184 -1.15184,2.30503 -2.54236,3.18955 -5.01417,3.18955 -1.42361,0 -2.04699,-0.14466 -3.18483,-0.73907 z"
       style="fill:#999999;fill-opacity:1;stroke-width:0.264583" />
    <path
       id="path974"
       d="m 94.101996,21.795228 c -3.378328,-0.43662 -5.837874,-2.97936 -6.14364,-6.35143 -0.1185,-1.30687 -0.0266,-1.76181 0.646406,-3.20001 1.411686,-3.0167197 3.257446,-4.3045297 6.164264,-4.3009097 2.90412,0.004 5.750254,1.78931 6.779984,4.2537997 0.60292,1.44299 0.46047,3.97577 -0.31778,5.65013 -1.441194,3.10066 -3.758504,4.38406 -7.129234,3.94842 z"
       style="fill:#999999;fill-opacity:1;stroke-width:0.264583" />
    <path
       id="path972"
       d="m 39.821493,21.662878 c -4.243811,-1.565211 -6.564013,-7.66824 -4.461192,-11.7346497 1.624787,-3.14199 6.601814,-5.0492507 10.123619,-3.879495 3.037481,1.008885 5.154786,4.1473947 5.326416,7.8954047 0.0829,1.8099 0.008,2.23876 -0.61333,3.50852 -0.798787,1.632669 -2.31097,3.00547 -4.264667,3.87159 -1.676056,0.74304 -4.578316,0.90387 -6.110846,0.33863 z"
       style="fill:#666666;fill-opacity:1;stroke-width:0.264583" />
    <path
       id="path970"
       d="m 23.906361,21.744378 c -1.354196,-0.43334 -3.329137,-2.369721 -4.03472,-3.95594 -0.927136,-2.0843 -0.889393,-4.67871 0.09236,-6.34883 1.679132,-2.8564697 5.461682,-4.3091397 8.69666,-3.3399197 3.610438,1.08172 5.861785,6.4380897 4.172619,9.9274397 -1.444461,2.98386 -5.691803,4.75249 -8.926919,3.71725 z"
       style="fill:#666666;fill-opacity:1;stroke-width:0.264583" />
    <path
       id="path968"
       d="m 9.4898575,21.826778 c -1.267005,-0.40709 -2.538537,-1.570641 -3.283066,-3.00425 -0.574754,-1.10671 -0.714978,-1.7397 -0.723748,-3.26707 -0.0097,-1.68307 0.07771,-2.02251 0.783256,-3.04271 1.039187,-1.50264 3.625422,-2.8680897 5.4323145,-2.8680897 2.314729,0 4.097908,1.1172497 5.214673,3.2672497 0.569579,1.09655 0.710083,1.73324 0.718834,3.25737 0.0097,1.68864 -0.07534,2.01615 -0.782872,3.015249 -1.500569,2.118921 -5.036737,3.388521 -7.3593915,2.642251 z"
       style="fill:#666666;fill-opacity:1;stroke-width:0.264583" />
    <path
       id="path966"
       d="m 100.72216,41.924228 c -2.468594,-0.8256 -3.999924,-2.10614 -4.952244,-4.14119 -0.70324,-1.50279 -0.78876,-1.92909 -0.67395,-3.35942 0.2379,-2.96369 2.10377,-5.94664 4.36813,-6.9833 1.264684,-0.57899 1.712574,-0.64653 3.600184,-0.54289 2.41501,0.13261 3.7462,0.67449 5.45955,2.2224 1.54605,1.39676 2.12134,2.79757 2.11439,5.14848 -0.007,2.24902 -0.51856,3.64211 -2.00493,5.45603 -2.0149,2.45892 -4.81142,3.23657 -7.91113,2.19989 z"
       style="fill:#999999;fill-opacity:1;stroke-width:0.264583" />
    <path
       id="path964"
       d="m 84.538256,41.963228 c -1.71391,-0.59228 -3.07617,-1.62025 -4.00098,-3.01915 -0.62427,-0.94429 -0.716,-1.34432 -0.70798,-3.08745 0.0109,-2.3549 0.77725,-4.13873 2.38444,-5.54986 1.29214,-1.13452 1.93449,-1.34753 4.0636,-1.34753 1.47338,0 2.083476,0.14536 3.426052,0.81625 2.60105,1.29976 3.624308,3.14805 3.430238,6.19595 -0.15806,2.48218 -1.445068,4.46352 -3.651648,5.62166 -1.876562,0.98492 -2.935302,1.06419 -4.943722,0.37013 z"
       style="fill:#999999;fill-opacity:1;stroke-width:0.264583" />
    <path
       id="path962"
       d="m 69.536696,42.180318 c -2.29048,-0.68617 -4.14108,-3.12864 -4.1306,-5.45167 0.0102,-2.26243 1.29919,-4.42639 3.2248,-5.4139 3.44668,-1.76757 8.41106,1.12302 8.41106,4.89748 0,4.02281 -3.83066,7.0689 -7.50526,5.96809 z"
       style="fill:#999999;fill-opacity:1;stroke-width:0.264583" />
    <path
       id="path960"
       d="m 48.060002,41.843618 c -3.817843,-1.82513 -5.750084,-7.07336 -3.940876,-10.70397 1.693635,-3.39868 6.30509,-5.36017 9.8408,-4.1858 3.80905,1.26516 6.26311,6.27838 4.97371,10.1604 -1.00302,3.01981 -3.95779,5.07827 -7.55626,5.26412 -1.683527,0.087 -2.186471,0.006 -3.317374,-0.53475 z"
       style="fill:#666666;fill-opacity:1;stroke-width:0.264583" />
    <path
       id="path958"
       d="m 31.899535,41.817418 c -3.97493,-1.85083 -5.072824,-7.84598 -1.999631,-10.91917 1.747001,-1.747 4.81003,-2.58326 7.147806,-1.95148 3.145679,0.85012 5.460405,5.30332 4.544888,8.74372 -0.420285,1.57939 -2.576549,3.71346 -4.369281,4.32431 -1.837757,0.62618 -3.70363,0.55701 -5.323782,-0.19738 z"
       style="fill:#666666;fill-opacity:1;stroke-width:0.264583" />
    <path
       id="path956"
       d="m 17.642999,42.014088 c -2.215614,-1.16598 -3.4266,-3.41801 -3.258401,-6.05953 0.167645,-2.63281 1.671432,-4.31271 4.526098,-5.05616 1.728667,-0.45021 3.804398,-0.0844 4.939139,0.87042 1.227345,1.03275 2.256809,3.3969 2.232309,5.12647 -0.03278,2.31418 -1.182087,3.93782 -3.544353,5.00713 -1.442446,0.65294 -3.765549,0.70594 -4.894792,0.11167 z"
       style="fill:#666666;fill-opacity:1;stroke-width:0.264583" />
    <path
       id="path954"
       d="m 92.073798,62.31629 c -2.69779,-1.05486 -4.205832,-2.53471 -4.969202,-4.876232 -0.80461,-2.46807 0.37556,-6.17815 2.583462,-8.12164 1.51253,-1.33138 2.60328,-1.66652 4.936518,-1.51678 2.31165,0.14835 4.19594,1.07444 5.728354,2.81535 1.24882,1.41873 1.66166,2.80663 1.48742,5.00044 -0.41404,5.213292 -5.189294,8.488622 -9.766552,6.698862 z"
       style="fill:#999999;fill-opacity:1;stroke-width:0.264583" />
    <path
       id="path952"
       d="m 76.512786,62.57849 c -4.49041,-1.37087 -6.22036,-5.200052 -4.18198,-9.256642 0.73521,-1.46314 1.10488,-1.87785 2.3182,-2.60063 2.04141,-1.21607 4.04145,-1.21528 6.39391,0.002 2.21556,1.14693 3.1985,2.51442 3.35416,4.66643 0.34047,4.706922 -3.76163,8.446932 -7.88429,7.188332 z"
       style="fill:#999999;fill-opacity:1;stroke-width:0.264583" />
    <path
       id="path950"
       d="m 57.255106,62.49339 c -1.24667,-0.39947 -3.15355,-2.17629 -3.88527,-3.62026 -2.2201,-4.381172 -0.77545,-8.650062 3.57835,-10.573942 3.99321,-1.76454 7.87435,-0.3544 9.80208,3.56138 1.58343,3.21641 1.06022,6.49316 -1.39663,8.746812 -2.0828,1.91053 -5.52226,2.71152 -8.09853,1.88601 z"
       style="fill:#666666;fill-opacity:1;stroke-width:0.264583" />
    <path
       id="path948"
       d="m 40.643032,62.3251 c -2.143937,-0.97375 -3.640129,-3.71578 -3.640944,-6.672652 -0.0013,-5.07433 7.40587,-7.95988 10.990035,-4.28125 2.177903,2.23531 2.803363,5.77813 1.432928,8.116592 -1.655972,2.8257 -5.834931,4.17585 -8.782019,2.83731 z"
       style="fill:#666666;fill-opacity:1;stroke-width:0.264583" />
    <path
       id="path946"
       d="m 25.707695,61.99494 c -2.428479,-1.82867 -3.207326,-5.244882 -1.759145,-7.716012 1.610588,-2.74826 6.317815,-3.52626 8.612279,-1.42342 1.029428,0.94346 1.877716,3.0434 1.880627,4.65549 0.0054,3.022462 -2.154629,5.030522 -5.652876,5.255032 -1.825816,0.11717 -1.938851,0.0889 -3.080885,-0.77109 z"
       style="fill:#666666;fill-opacity:1;stroke-width:0.264583" />
    <path
       id="path944"
       d="m 84.185706,82.95144 c -2.18641,-0.66749 -4.41481,-2.55999 -5.18508,-4.40351 -1.2517,-2.99573 0.5371,-7.54844 3.62648,-9.22989 1.21557,-0.6616 1.54877,-0.72451 3.25677,-0.6149 3.334626,0.21401 6.152752,2.17102 7.0526,4.89759 0.45985,1.39338 0.17038,3.94928 -0.625068,5.51903 -0.75858,1.49698 -2.44304,3.14898 -3.780806,3.70793 -0.943386,0.39417 -3.244416,0.45971 -4.344896,0.12375 z"
       style="fill:#999999;fill-opacity:1;stroke-width:0.264583" />
    <path
       id="path942"
       d="m 65.526716,82.71996 c -2.18998,-1.02812 -3.62358,-3.06993 -4.06054,-5.78323 -0.77574,-4.81686 2.50582,-8.37869 7.69576,-8.35304 2.82588,0.014 5.18545,1.7951 6.2904,4.74836 1.41073,3.7705 0.0513,7.27814 -3.53894,9.13137 -1.5621,0.80634 -4.92764,0.94152 -6.38668,0.25654 z"
       style="fill:#666666;fill-opacity:1;stroke-width:0.264583" />
    <path
       id="path940"
       d="m 34.805417,82.70596 c -2.172081,-1.36315 -3.321744,-4.55451 -2.46121,-6.8321 0.377605,-0.99941 1.487315,-2.13758 2.684605,-2.75343 1.098907,-0.56525 3.423904,-0.67725 4.623525,-0.22273 1.677435,0.63556 2.95339,2.58714 3.167557,4.84478 0.167659,1.76734 -0.649589,3.41662 -2.240965,4.52246 -0.962657,0.66896 -1.43859,0.80617 -3.042708,0.87722 -1.532761,0.0679 -2.062382,-0.0167 -2.730804,-0.4362 z"
       style="fill:#666666;fill-opacity:1;stroke-width:0.264583" />
    <path
       id="path938"
       d="m 50.616236,83.18415 c -3.167157,-0.69763 -5.582933,-5.13088 -4.531682,-8.3162 1.051295,-3.18546 5.774592,-5.15628 8.854692,-3.69468 2.83355,1.34461 4.38693,5.59766 3.08844,8.45595 -1.12162,2.46895 -4.65264,4.16262 -7.41145,3.55493 z"
       style="fill:#666666;fill-opacity:1;stroke-width:0.264583" />
    <path
       id="path936"
       d="m 74.484916,103.13948 c -1.39447,-0.4942 -3.388,-2.59094 -3.7694,-3.964562 -0.3642,-1.31169 -0.36643,-3.90958 -0.004,-5.213048 0.34691,-1.24928 1.83974,-2.93956 3.27016,-3.7027 1.555,-0.8296 5.36382,-0.82763 6.92227,0.004 2.33578,1.2458 3.39969,3.21657 3.39969,6.297538 0,3.21804 -1.14766,5.206642 -3.6874,6.389342 -1.56763,0.73001 -4.36248,0.81656 -6.13085,0.18985 z"
       style="fill:#666666;fill-opacity:1;stroke-width:0.264583" />
    <path
       id="path934"
       d="m 58.625716,103.2857 c -1.33275,-0.38667 -3.16468,-2.5576 -3.50763,-4.156722 -0.91707,-4.276138 1.99022,-7.724968 6.25211,-7.416698 3.14686,0.22763 5.14978,2.0742 5.43949,5.014858 0.2095,2.12663 -0.10112,3.475132 -1.07873,4.682992 -1.17176,1.44775 -2.74209,2.16631 -4.67176,2.13775 -0.88662,-0.0131 -1.98168,-0.13111 -2.43348,-0.26218 z"
       style="fill:#666666;fill-opacity:1;stroke-width:0.264583" />
    <path
       id="path909"
       d="m 43.751984,103.14118 c -3.430288,-1.74661 -3.39363,-7.287072 0.05859,-8.85488 2.129493,-0.96709 5.078156,-0.32785 6.312104,1.368418 1.572228,2.16128 1.001898,5.590892 -1.201159,7.223062 -1.007999,0.7468 -3.927959,0.89557 -5.169535,0.2634 z"
       style="fill:#666666;fill-opacity:1;stroke-width:0.264583" />
  </g>
</svg>
