<svg xmlns="http://www.w3.org/2000/svg" xmlns:xlink="http://www.w3.org/1999/xlink" width="24" height="24" viewBox="0 0 24 24">
  <!-- Based on rounded_corner.svg -->
    <path  d="
      M19 19h2v2h-2v-2zm0-2h2v-2h-2v2z
      M3 13h2v-2H3v2zm0 4h2v-2H3v2z
      m0-8h2V7H3v2zm0-4h2V3H3v2z
      m4 0h2V3H7v2zm8 16h2v-2h-2v2z
      m-4 0h2v-2h-2v2z
      m4 0h2v-2h-2v2z
      m-8 0h2v-2H7v2z
      m-4 0h2v-2H3v2z
      M11 5h2v-2h-2v2z
      M15 5h2v-2h-2v2z
      M19 5h2v-2h-2v2z
      M19 9h2v-2h-2v2z
      M19 13h2v-2h-2v2z
    "/>
</svg>
