<svg xmlns="http://www.w3.org/2000/svg" xmlns:xlink="http://www.w3.org/1999/xlink" width="24" height="24" viewBox="0 0 24 24">
  <g transform="translate(0,3)">
    <path
      style="stroke-width:0.343565"
      d="M 23.942314,4.6958443 C 23.446206,1.8868581 19.727461,0 14.687364,0 13.437819,0 12.150138,0.11543779 10.859708,0.34287772 4.1629423,1.5250844 -0.58168816,5.2884937 0.05768601,8.911385 c 0.25355086,1.439193 1.35605049,2.63583 3.04638949,3.461072 -0.2569865,0.387198 -0.4074679,0.826617 -0.4074679,1.29524 0,1.337498 1.1863293,2.457176 2.7639791,2.728248 l -1.3615475,2.333149 c -0.1576963,0.271073 -0.066308,0.61876 0.2047647,0.776457 0.090014,0.05291 0.1886171,0.07799 0.2858459,0.07799 0.1951448,0 0.3851362,-0.100665 0.4912977,-0.281723 l 1.6803757,-2.88148 C 8.41868,16.20561 9.6895264,15.063601 9.6998333,13.683844 c 6.872e-4,-0.0055 0.00137,-0.01065 0.00137,-0.01615 0,-0.02336 -0.00344,-0.04569 -0.00481,-0.06837 1.1292977,-0.0213 2.2847067,-0.130211 3.4435507,-0.334975 6.69711,-1.181863 11.44174,-4.9456164 10.802366,-8.5685077 z M 3.83312,13.667353 c 0,-0.30749 0.1281497,-0.59849 0.3470005,-0.848261 0.1219655,0.04295 0.2456489,0.08383 0.3717372,0.123339 l 1.2234344,2.352045 C 4.6865351,15.149835 3.83312,14.46408 3.83312,13.667353 Z M 7.0141869,15.216144 6.0223152,13.309702 5.4008064,12.114097 c 0.121622,-0.03161 0.2477103,-0.05634 0.3772342,-0.07387 0.1367388,-0.0189 0.2772568,-0.02886 0.420867,-0.02886 0.5067581,0 0.980534,0.11956 1.3701366,0.317454 0.5696305,0.289968 0.9554538,0.750345 0.9904974,1.262944 0.00137,0.02542 0.0055,0.05016 0.0055,0.07593 0,0.698124 -0.6562089,1.310356 -1.5508518,1.548447 z m 5.9185921,-3.126441 c -1.217251,0.214728 -2.429691,0.323982 -3.6060571,0.324669 -0.5765018,-0.911821 -1.7614569,-1.53917 -3.1278143,-1.53917 -0.4717146,0 -0.921441,0.07593 -1.332001,0.211292 -0.3061162,0.100665 -0.5878394,0.237403 -0.8427645,0.39991 C 2.4598914,10.828133 1.4360682,9.8579062 1.2319907,8.7035283 0.72660678,5.8381974 5.2307418,2.5475333 11.067221,1.5175259 c 1.222061,-0.2161023 2.439998,-0.3246688 3.620143,-0.3246688 4.371863,0 7.694479,1.5250844 8.080645,3.7101568 0.505041,2.8653309 -3.998751,6.1566821 -9.83523,7.1866891 z"
      id="path10" />
  </g>
</svg>
